<?xml version="1.0" encoding="UTF-8"?>
<svg width="120px" height="66px" viewBox="0 0 120 66" version="1.1" xmlns="http://www.w3.org/2000/svg" xmlns:xlink="http://www.w3.org/1999/xlink">
    <title>spitfire-logo</title>
    <g id="Global" stroke="none" stroke-width="1" fill="none" fill-rule="evenodd">
        <g id="spitfire-logo">
            <path d="M86.8578378,40.9772973 C88.76,40.9772973 89.8962162,42.2194595 89.8962162,44.3 L89.8962162,44.3 L89.8962162,44.9351351 L89.2372973,44.9351351 L89.2372973,44.28 C89.2372973,42.587027 88.3697297,41.6156757 86.8578378,41.6156757 C85.3556757,41.6156757 84.4589189,42.5886486 84.4589189,44.2189189 C84.4589189,45.6064865 85.107027,46.5459459 87.1259459,48.0854054 C89.2848649,49.7308108 89.9778378,50.8102703 89.9778378,52.5281081 C89.9778378,54.6086486 88.8189189,55.8513514 86.8783784,55.8513514 C84.9502703,55.8513514 83.7994595,54.6086486 83.7994595,52.5281081 L83.7994595,52.5281081 L83.7994595,51.6686486 L84.4378378,51.6686486 L84.4378378,52.5481081 C84.4378378,54.2410811 85.3275676,55.2124324 86.8783784,55.2124324 C88.4291892,55.2124324 89.3183784,54.2410811 89.3183784,52.5481081 C89.3183784,51.0454054 88.6805405,50.0859459 86.6935135,48.6 C84.5297297,46.9518919 83.7994595,45.8513514 83.7994595,44.2394595 C83.7994595,42.227027 84.9713514,40.9772973 86.8578378,40.9772973 Z M45.84,40.9772973 C47.8648649,40.9772973 48.98,42.2151351 48.98,44.4632432 L48.98,44.4632432 L48.98,52.3648649 C48.98,54.612973 47.8648649,55.8513514 45.84,55.8513514 C43.8151351,55.8513514 42.7,54.612973 42.7,52.3648649 L42.7,52.3648649 L42.7,44.4632432 C42.7,42.2151351 43.8151351,40.9772973 45.84,40.9772973 Z M29.6594595,41.1810811 L29.6594595,47.7994595 L34.58,47.7994595 L34.58,41.1810811 L35.2389189,41.1810811 L35.2389189,55.647027 L34.58,55.647027 L34.58,48.4178378 L29.6594595,48.4178378 L29.6594595,55.647027 L29,55.647027 L29,41.1810811 L29.6594595,41.1810811 Z M57.7037838,41.1810811 L57.7232432,41.2621622 L60.8172973,54.2497297 L63.9113514,41.1810811 L64.8335135,41.1810811 L64.8335135,55.647027 L64.1740541,55.647027 L64.1740541,42.7567568 L61.1048649,55.647027 L60.4897297,55.647027 L57.4205405,42.7567568 L57.4205405,55.647027 L56.7816216,55.647027 L56.7816216,41.1810811 L57.7037838,41.1810811 Z M78.0248649,41.1810811 L78.0248649,41.8194595 L73.0967568,41.8194595 L73.0967568,47.7994595 L77.2308108,47.7994595 L77.2308108,48.4178378 L73.0967568,48.4178378 L73.0967568,55.0086486 L78.0248649,55.0086486 L78.0248649,55.647027 L72.4372973,55.647027 L72.4372973,41.1810811 L78.0248649,41.1810811 Z M45.84,41.6156757 C44.1935135,41.6156757 43.3589189,42.567027 43.3589189,44.4432432 L43.3589189,44.4432432 L43.3589189,52.3848649 C43.3589189,54.2610811 44.1935135,55.2124324 45.84,55.2124324 C47.4859459,55.2124324 48.3205405,54.2610811 48.3205405,52.3848649 L48.3205405,52.3848649 L48.3205405,44.4432432 C48.3205405,42.567027 47.4859459,41.6156757 45.84,41.6156757 Z" id="Fill-17" fill="#212925"></path>
            <path d="M4.84486486,9.75675676 C7.96216216,9.75675676 9.59783784,11.6708108 9.59783784,14.9718919 L9.59783784,15.8367568 L7.31405405,15.8367568 L7.31405405,14.8178378 C7.31405405,12.8740541 6.41945946,11.9481081 4.84486486,11.9481081 C3.30216216,11.9481081 2.37621622,12.8740541 2.37621622,14.7567568 C2.37621622,16.5464865 3.24054054,17.7805405 5.80216216,19.88 C8.76486486,22.3486486 9.72162162,24.0767568 9.72162162,26.7 C9.72162162,30.0637838 7.96216216,31.9772973 4.81459459,31.9772973 C1.66702703,31.9772973 7.10542736e-15,30.0637838 7.10542736e-15,26.7308108 L7.10542736e-15,25.527027 L2.28378378,25.527027 L2.28378378,26.9162162 C2.28378378,28.86 3.24054054,29.7859459 4.78378378,29.7859459 C6.3572973,29.7859459 7.31405405,28.86 7.31405405,26.8848649 C7.31405405,24.8789189 6.48054054,23.6140541 3.98108108,21.5464865 C0.987567568,19.0767568 7.10542736e-15,17.3486486 7.10542736e-15,14.9108108 C7.10542736e-15,11.6708108 1.72810811,9.75675676 4.84486486,9.75675676 Z M119.181622,10.0654054 L119.181622,12.2567568 L112.730811,12.2567568 L112.730811,19.292973 L117.978378,19.292973 L117.978378,21.4843243 L112.730811,21.4843243 L112.730811,29.4772973 L119.181622,29.4772973 L119.181622,31.6686486 L110.324324,31.6686486 L110.324324,10.0654054 L119.181622,10.0654054 Z M22.8562162,10.0654054 C26.1897297,10.0654054 27.732973,11.8248649 27.732973,15.3118919 L27.732973,17.1637838 C27.732973,20.6508108 26.1897297,22.3789189 22.8562162,22.3789189 L20.5416216,22.3789189 L20.5416216,31.6686486 L18.1345946,31.6686486 L18.1345946,10.0654054 L22.8562162,10.0654054 Z M38.1048649,10.0654054 L38.1048649,31.6686486 L35.6978378,31.6686486 L35.6978378,10.0654054 L38.1048649,10.0654054 Z M55.987027,10.0654054 L55.987027,12.2567568 L52.16,12.2567568 L52.16,31.6686486 L49.752973,31.6686486 L49.752973,12.2567568 L45.9254054,12.2567568 L45.9254054,10.0654054 L55.987027,10.0654054 Z M72.4259459,10.0654054 L72.4259459,12.2567568 L66.252973,12.2567568 L66.252973,19.6016216 L71.2216216,19.6016216 L71.2216216,21.792973 L66.252973,21.792973 L66.252973,31.6686486 L63.8459459,31.6686486 L63.8459459,10.0654054 L72.4259459,10.0654054 Z M82.9659459,10.0654054 L82.9659459,31.6686486 L80.5589189,31.6686486 L80.5589189,10.0654054 L82.9659459,10.0654054 Z M96.7275676,10.0654054 C100.154054,10.0654054 101.603784,11.6086486 101.603784,14.9718919 L101.603784,16.2994595 C101.603784,18.6756757 100.831892,20.0951351 99.1043243,20.6508108 L99.1043243,20.6821622 C100.924865,21.1448649 101.634595,22.6572973 101.634595,25.1875676 L101.634595,29.0454054 C101.634595,30.032973 101.665946,30.8972973 101.943243,31.6686486 L99.5048649,31.6686486 C99.32,31.0518919 99.227027,30.4956757 99.227027,29.0454054 L99.227027,25.0643243 C99.227027,22.7183784 98.3945946,21.9162162 96.3572973,21.9162162 L94.4135135,21.9162162 L94.4135135,31.6686486 L92.0059459,31.6686486 L92.0059459,10.0654054 L96.7275676,10.0654054 Z M22.8562162,12.2567568 L20.5416216,12.2567568 L20.5416216,20.1881081 L22.8562162,20.1881081 C24.5540541,20.1881081 25.3254054,19.4162162 25.3254054,17.287027 L25.3254054,15.1572973 C25.3254054,13.0281081 24.5540541,12.2567568 22.8562162,12.2567568 Z M96.6659459,12.2567568 L94.4135135,12.2567568 L94.4135135,19.7254054 L96.3572973,19.7254054 C98.2394595,19.7254054 99.1962162,18.9227027 99.1962162,16.7627027 L99.1962162,15.2194595 C99.1962162,13.1210811 98.4562162,12.2567568 96.6659459,12.2567568 Z" id="Fill-16" fill="#212925"></path>
            <polygon id="Fill-14" fill="#857D56" points="-7.10542736e-15 0.756756757 119.744865 0.756756757 119.744865 -5.07371922e-14 -7.10542736e-15 -5.07371922e-14"></polygon>
            <polygon id="Fill-15" fill="#857D56" points="-7.10542736e-15 65.6081081 119.744865 65.6081081 119.744865 64.8513514 -7.10542736e-15 64.8513514"></polygon>
        </g>
    </g>
</svg>